<mxfile host="app.diagrams.net" agent="Mozilla/5.0 (Windows NT 10.0; Win64; x64) AppleWebKit/537.36 (KHTML, like Gecko) Chrome/137.0.0.0 Safari/537.36" version="27.2.0">
  <diagram name="Page-1" id="tJCy387jeLStMwdDVoLm">
    <mxGraphModel dx="2633" dy="2029" grid="1" gridSize="10" guides="1" tooltips="1" connect="1" arrows="1" fold="1" page="1" pageScale="1" pageWidth="850" pageHeight="1100" math="0" shadow="0">
      <root>
        <mxCell id="0" />
        <mxCell id="1" parent="0" />
        <mxCell id="GHYGCPifQh15sZ_tnKLO-13" value="" style="edgeStyle=orthogonalEdgeStyle;rounded=0;orthogonalLoop=1;jettySize=auto;html=1;" parent="1" source="GHYGCPifQh15sZ_tnKLO-2" target="GHYGCPifQh15sZ_tnKLO-12" edge="1">
          <mxGeometry relative="1" as="geometry" />
        </mxCell>
        <mxCell id="GHYGCPifQh15sZ_tnKLO-15" value="" style="edgeStyle=orthogonalEdgeStyle;rounded=0;orthogonalLoop=1;jettySize=auto;html=1;" parent="1" source="GHYGCPifQh15sZ_tnKLO-2" target="GHYGCPifQh15sZ_tnKLO-14" edge="1">
          <mxGeometry relative="1" as="geometry" />
        </mxCell>
        <mxCell id="GHYGCPifQh15sZ_tnKLO-2" value="Configurator Used" style="rounded=0;whiteSpace=wrap;html=1;fillColor=#cce5ff;strokeColor=#36393d;" parent="1" vertex="1">
          <mxGeometry x="370" y="900" width="120" height="60" as="geometry" />
        </mxCell>
        <mxCell id="GHYGCPifQh15sZ_tnKLO-17" value="" style="edgeStyle=orthogonalEdgeStyle;rounded=0;orthogonalLoop=1;jettySize=auto;html=1;" parent="1" source="GHYGCPifQh15sZ_tnKLO-29" target="GHYGCPifQh15sZ_tnKLO-16" edge="1">
          <mxGeometry relative="1" as="geometry" />
        </mxCell>
        <mxCell id="GHYGCPifQh15sZ_tnKLO-12" value="Custom Order Request" style="rounded=0;whiteSpace=wrap;html=1;fillColor=#cce5ff;strokeColor=#36393d;" parent="1" vertex="1">
          <mxGeometry x="460" y="1000" width="120" height="60" as="geometry" />
        </mxCell>
        <mxCell id="GHYGCPifQh15sZ_tnKLO-64" style="edgeStyle=orthogonalEdgeStyle;rounded=0;orthogonalLoop=1;jettySize=auto;html=1;entryX=0;entryY=0.5;entryDx=0;entryDy=0;" parent="1" source="GHYGCPifQh15sZ_tnKLO-14" target="GHYGCPifQh15sZ_tnKLO-20" edge="1">
          <mxGeometry relative="1" as="geometry" />
        </mxCell>
        <mxCell id="GHYGCPifQh15sZ_tnKLO-14" value="Regular Order Request" style="rounded=0;whiteSpace=wrap;html=1;fillColor=#cce5ff;strokeColor=#36393d;" parent="1" vertex="1">
          <mxGeometry x="270" y="1000" width="120" height="60" as="geometry" />
        </mxCell>
        <mxCell id="GHYGCPifQh15sZ_tnKLO-40" value="" style="edgeStyle=orthogonalEdgeStyle;rounded=0;orthogonalLoop=1;jettySize=auto;html=1;" parent="1" source="GHYGCPifQh15sZ_tnKLO-16" target="GHYGCPifQh15sZ_tnKLO-20" edge="1">
          <mxGeometry relative="1" as="geometry" />
        </mxCell>
        <mxCell id="GHYGCPifQh15sZ_tnKLO-16" value="Engineers&#39; Evaluation" style="rounded=0;whiteSpace=wrap;html=1;fillColor=#cce5ff;strokeColor=#36393d;" parent="1" vertex="1">
          <mxGeometry x="460" y="1170" width="120" height="60" as="geometry" />
        </mxCell>
        <mxCell id="GHYGCPifQh15sZ_tnKLO-37" value="" style="edgeStyle=orthogonalEdgeStyle;rounded=0;orthogonalLoop=1;jettySize=auto;html=1;" parent="1" source="GHYGCPifQh15sZ_tnKLO-20" target="GHYGCPifQh15sZ_tnKLO-36" edge="1">
          <mxGeometry relative="1" as="geometry" />
        </mxCell>
        <mxCell id="GHYGCPifQh15sZ_tnKLO-20" value="Order Made" style="rounded=0;whiteSpace=wrap;html=1;fillColor=#cce5ff;strokeColor=#36393d;" parent="1" vertex="1">
          <mxGeometry x="460" y="1260" width="120" height="60" as="geometry" />
        </mxCell>
        <mxCell id="GHYGCPifQh15sZ_tnKLO-30" value="" style="edgeStyle=orthogonalEdgeStyle;rounded=0;orthogonalLoop=1;jettySize=auto;html=1;" parent="1" source="GHYGCPifQh15sZ_tnKLO-12" target="GHYGCPifQh15sZ_tnKLO-29" edge="1">
          <mxGeometry relative="1" as="geometry">
            <mxPoint x="520" y="1060" as="sourcePoint" />
            <mxPoint x="520" y="1280" as="targetPoint" />
          </mxGeometry>
        </mxCell>
        <mxCell id="GHYGCPifQh15sZ_tnKLO-31" value="" style="edgeStyle=orthogonalEdgeStyle;rounded=0;orthogonalLoop=1;jettySize=auto;html=1;" parent="1" source="GHYGCPifQh15sZ_tnKLO-12" target="GHYGCPifQh15sZ_tnKLO-29" edge="1">
          <mxGeometry relative="1" as="geometry">
            <mxPoint x="520" y="1060" as="sourcePoint" />
            <mxPoint x="520" y="1200" as="targetPoint" />
          </mxGeometry>
        </mxCell>
        <mxCell id="GHYGCPifQh15sZ_tnKLO-29" value="CAT3 Request Made" style="rounded=0;whiteSpace=wrap;html=1;fillColor=#cce5ff;strokeColor=#36393d;" parent="1" vertex="1">
          <mxGeometry x="460" y="1080" width="120" height="60" as="geometry" />
        </mxCell>
        <mxCell id="GHYGCPifQh15sZ_tnKLO-66" value="" style="edgeStyle=orthogonalEdgeStyle;rounded=0;orthogonalLoop=1;jettySize=auto;html=1;" parent="1" source="GHYGCPifQh15sZ_tnKLO-36" target="GHYGCPifQh15sZ_tnKLO-65" edge="1">
          <mxGeometry relative="1" as="geometry" />
        </mxCell>
        <mxCell id="GHYGCPifQh15sZ_tnKLO-36" value="Down Payment" style="whiteSpace=wrap;html=1;rounded=0;fillColor=#cce5ff;strokeColor=#36393d;" parent="1" vertex="1">
          <mxGeometry x="460" y="1350" width="120" height="60" as="geometry" />
        </mxCell>
        <mxCell id="GHYGCPifQh15sZ_tnKLO-52" value="" style="edgeStyle=orthogonalEdgeStyle;rounded=0;orthogonalLoop=1;jettySize=auto;html=1;shape=link;" parent="1" source="GHYGCPifQh15sZ_tnKLO-45" target="GHYGCPifQh15sZ_tnKLO-51" edge="1">
          <mxGeometry relative="1" as="geometry" />
        </mxCell>
        <mxCell id="r7g_J46dXL48xL23C749-13" style="edgeStyle=orthogonalEdgeStyle;rounded=0;orthogonalLoop=1;jettySize=auto;html=1;exitX=0.5;exitY=1;exitDx=0;exitDy=0;entryX=0.25;entryY=0;entryDx=0;entryDy=0;" edge="1" parent="1" source="GHYGCPifQh15sZ_tnKLO-45" target="GHYGCPifQh15sZ_tnKLO-62">
          <mxGeometry relative="1" as="geometry" />
        </mxCell>
        <mxCell id="GHYGCPifQh15sZ_tnKLO-45" value="Facebook" style="rounded=0;whiteSpace=wrap;html=1;fillColor=#fa6800;fontColor=#000000;strokeColor=#C73500;" parent="1" vertex="1">
          <mxGeometry x="-180" y="-230" width="120" height="60" as="geometry" />
        </mxCell>
        <mxCell id="GHYGCPifQh15sZ_tnKLO-55" value="" style="edgeStyle=orthogonalEdgeStyle;rounded=0;orthogonalLoop=1;jettySize=auto;html=1;shape=link;" parent="1" source="GHYGCPifQh15sZ_tnKLO-46" target="GHYGCPifQh15sZ_tnKLO-48" edge="1">
          <mxGeometry relative="1" as="geometry" />
        </mxCell>
        <mxCell id="r7g_J46dXL48xL23C749-15" style="edgeStyle=orthogonalEdgeStyle;rounded=0;orthogonalLoop=1;jettySize=auto;html=1;exitX=0.5;exitY=1;exitDx=0;exitDy=0;entryX=0.75;entryY=0;entryDx=0;entryDy=0;" edge="1" parent="1" source="GHYGCPifQh15sZ_tnKLO-46" target="GHYGCPifQh15sZ_tnKLO-62">
          <mxGeometry relative="1" as="geometry" />
        </mxCell>
        <mxCell id="GHYGCPifQh15sZ_tnKLO-46" value="Instagram" style="whiteSpace=wrap;html=1;fillColor=#fa6800;fontColor=#000000;strokeColor=#C73500;" parent="1" vertex="1">
          <mxGeometry x="120" y="-230" width="120" height="60" as="geometry" />
        </mxCell>
        <mxCell id="GHYGCPifQh15sZ_tnKLO-56" value="" style="edgeStyle=orthogonalEdgeStyle;rounded=0;orthogonalLoop=1;jettySize=auto;html=1;shape=link;" parent="1" source="GHYGCPifQh15sZ_tnKLO-48" target="GHYGCPifQh15sZ_tnKLO-49" edge="1">
          <mxGeometry relative="1" as="geometry" />
        </mxCell>
        <mxCell id="r7g_J46dXL48xL23C749-18" style="edgeStyle=orthogonalEdgeStyle;rounded=0;orthogonalLoop=1;jettySize=auto;html=1;exitX=0.5;exitY=1;exitDx=0;exitDy=0;entryX=0;entryY=0;entryDx=0;entryDy=0;" edge="1" parent="1" source="GHYGCPifQh15sZ_tnKLO-48" target="r7g_J46dXL48xL23C749-17">
          <mxGeometry relative="1" as="geometry" />
        </mxCell>
        <mxCell id="GHYGCPifQh15sZ_tnKLO-48" value="Email" style="whiteSpace=wrap;html=1;fillColor=#fa6800;fontColor=#000000;strokeColor=#C73500;" parent="1" vertex="1">
          <mxGeometry x="270" y="-230" width="120" height="60" as="geometry" />
        </mxCell>
        <mxCell id="r7g_J46dXL48xL23C749-5" value="" style="edgeStyle=orthogonalEdgeStyle;rounded=0;orthogonalLoop=1;jettySize=auto;html=1;shape=link;" edge="1" parent="1" source="GHYGCPifQh15sZ_tnKLO-49" target="r7g_J46dXL48xL23C749-4">
          <mxGeometry relative="1" as="geometry" />
        </mxCell>
        <mxCell id="r7g_J46dXL48xL23C749-19" style="edgeStyle=orthogonalEdgeStyle;rounded=0;orthogonalLoop=1;jettySize=auto;html=1;exitX=0.5;exitY=1;exitDx=0;exitDy=0;entryX=0.25;entryY=0;entryDx=0;entryDy=0;" edge="1" parent="1" source="GHYGCPifQh15sZ_tnKLO-49" target="r7g_J46dXL48xL23C749-17">
          <mxGeometry relative="1" as="geometry" />
        </mxCell>
        <mxCell id="GHYGCPifQh15sZ_tnKLO-49" value="In-person" style="rounded=0;whiteSpace=wrap;html=1;fillColor=#fa6800;fontColor=#000000;strokeColor=#C73500;" parent="1" vertex="1">
          <mxGeometry x="420" y="-230" width="120" height="60" as="geometry" />
        </mxCell>
        <mxCell id="GHYGCPifQh15sZ_tnKLO-54" value="" style="edgeStyle=orthogonalEdgeStyle;rounded=0;orthogonalLoop=1;jettySize=auto;html=1;shape=link;" parent="1" source="GHYGCPifQh15sZ_tnKLO-51" target="GHYGCPifQh15sZ_tnKLO-46" edge="1">
          <mxGeometry relative="1" as="geometry" />
        </mxCell>
        <mxCell id="r7g_J46dXL48xL23C749-14" style="edgeStyle=orthogonalEdgeStyle;rounded=0;orthogonalLoop=1;jettySize=auto;html=1;exitX=0.5;exitY=1;exitDx=0;exitDy=0;entryX=0.5;entryY=0;entryDx=0;entryDy=0;" edge="1" parent="1" source="GHYGCPifQh15sZ_tnKLO-51" target="GHYGCPifQh15sZ_tnKLO-62">
          <mxGeometry relative="1" as="geometry" />
        </mxCell>
        <mxCell id="GHYGCPifQh15sZ_tnKLO-51" value="Youtube" style="rounded=0;whiteSpace=wrap;html=1;fillColor=#fa6800;fontColor=#000000;strokeColor=#C73500;" parent="1" vertex="1">
          <mxGeometry x="-30" y="-230" width="120" height="60" as="geometry" />
        </mxCell>
        <mxCell id="GHYGCPifQh15sZ_tnKLO-61" value="" style="edgeStyle=orthogonalEdgeStyle;rounded=0;orthogonalLoop=1;jettySize=auto;html=1;" parent="1" target="GHYGCPifQh15sZ_tnKLO-46" edge="1">
          <mxGeometry relative="1" as="geometry">
            <mxPoint x="180" y="-320" as="sourcePoint" />
          </mxGeometry>
        </mxCell>
        <mxCell id="r7g_J46dXL48xL23C749-27" style="edgeStyle=orthogonalEdgeStyle;rounded=0;orthogonalLoop=1;jettySize=auto;html=1;exitX=0.5;exitY=1;exitDx=0;exitDy=0;entryX=0.25;entryY=0;entryDx=0;entryDy=0;" edge="1" parent="1" source="GHYGCPifQh15sZ_tnKLO-62" target="r7g_J46dXL48xL23C749-23">
          <mxGeometry relative="1" as="geometry" />
        </mxCell>
        <mxCell id="r7g_J46dXL48xL23C749-28" style="edgeStyle=orthogonalEdgeStyle;rounded=0;orthogonalLoop=1;jettySize=auto;html=1;exitX=0.25;exitY=1;exitDx=0;exitDy=0;" edge="1" parent="1" source="GHYGCPifQh15sZ_tnKLO-62" target="r7g_J46dXL48xL23C749-3">
          <mxGeometry relative="1" as="geometry" />
        </mxCell>
        <mxCell id="GHYGCPifQh15sZ_tnKLO-62" value="Set up Zapier" style="whiteSpace=wrap;html=1;fillColor=#fa6800;fontColor=#000000;strokeColor=#C73500;" parent="1" vertex="1">
          <mxGeometry x="-110" y="-60" width="120" height="60" as="geometry" />
        </mxCell>
        <mxCell id="GHYGCPifQh15sZ_tnKLO-68" value="" style="edgeStyle=orthogonalEdgeStyle;rounded=0;orthogonalLoop=1;jettySize=auto;html=1;" parent="1" source="GHYGCPifQh15sZ_tnKLO-65" target="GHYGCPifQh15sZ_tnKLO-67" edge="1">
          <mxGeometry relative="1" as="geometry" />
        </mxCell>
        <mxCell id="GHYGCPifQh15sZ_tnKLO-71" value="" style="edgeStyle=orthogonalEdgeStyle;rounded=0;orthogonalLoop=1;jettySize=auto;html=1;" parent="1" source="GHYGCPifQh15sZ_tnKLO-65" target="GHYGCPifQh15sZ_tnKLO-70" edge="1">
          <mxGeometry relative="1" as="geometry" />
        </mxCell>
        <mxCell id="GHYGCPifQh15sZ_tnKLO-65" value="Order Slip" style="whiteSpace=wrap;html=1;rounded=0;fillColor=#60a917;strokeColor=#2D7600;fontColor=#ffffff;" parent="1" vertex="1">
          <mxGeometry x="460" y="1440" width="120" height="60" as="geometry" />
        </mxCell>
        <mxCell id="GHYGCPifQh15sZ_tnKLO-77" value="" style="edgeStyle=orthogonalEdgeStyle;rounded=0;orthogonalLoop=1;jettySize=auto;html=1;" parent="1" source="GHYGCPifQh15sZ_tnKLO-67" edge="1">
          <mxGeometry relative="1" as="geometry">
            <mxPoint x="270.0000000000009" y="1680" as="targetPoint" />
          </mxGeometry>
        </mxCell>
        <mxCell id="GHYGCPifQh15sZ_tnKLO-79" value="" style="edgeStyle=orthogonalEdgeStyle;rounded=0;orthogonalLoop=1;jettySize=auto;html=1;" parent="1" source="GHYGCPifQh15sZ_tnKLO-67" target="GHYGCPifQh15sZ_tnKLO-78" edge="1">
          <mxGeometry relative="1" as="geometry" />
        </mxCell>
        <mxCell id="GHYGCPifQh15sZ_tnKLO-67" value="Chill-Out-Chair" style="whiteSpace=wrap;html=1;rounded=0;fillColor=#60a917;strokeColor=#2D7600;fontColor=#ffffff;" parent="1" vertex="1">
          <mxGeometry x="295" y="1530" width="120" height="60" as="geometry" />
        </mxCell>
        <mxCell id="GHYGCPifQh15sZ_tnKLO-73" value="" style="edgeStyle=orthogonalEdgeStyle;rounded=0;orthogonalLoop=1;jettySize=auto;html=1;" parent="1" source="GHYGCPifQh15sZ_tnKLO-70" target="GHYGCPifQh15sZ_tnKLO-72" edge="1">
          <mxGeometry relative="1" as="geometry" />
        </mxCell>
        <mxCell id="GHYGCPifQh15sZ_tnKLO-70" value="Bike" style="whiteSpace=wrap;html=1;rounded=0;fillColor=#60a917;strokeColor=#2D7600;fontColor=#ffffff;" parent="1" vertex="1">
          <mxGeometry x="630" y="1530" width="120" height="60" as="geometry" />
        </mxCell>
        <mxCell id="GHYGCPifQh15sZ_tnKLO-81" value="" style="edgeStyle=orthogonalEdgeStyle;rounded=0;orthogonalLoop=1;jettySize=auto;html=1;" parent="1" source="GHYGCPifQh15sZ_tnKLO-72" target="GHYGCPifQh15sZ_tnKLO-80" edge="1">
          <mxGeometry relative="1" as="geometry" />
        </mxCell>
        <mxCell id="GHYGCPifQh15sZ_tnKLO-83" value="" style="edgeStyle=orthogonalEdgeStyle;rounded=0;orthogonalLoop=1;jettySize=auto;html=1;" parent="1" source="GHYGCPifQh15sZ_tnKLO-72" target="GHYGCPifQh15sZ_tnKLO-82" edge="1">
          <mxGeometry relative="1" as="geometry" />
        </mxCell>
        <mxCell id="GHYGCPifQh15sZ_tnKLO-72" value="Grab the design" style="whiteSpace=wrap;html=1;fillColor=#60a917;strokeColor=#2D7600;rounded=0;fontColor=#ffffff;" parent="1" vertex="1">
          <mxGeometry x="630" y="1670" width="120" height="60" as="geometry" />
        </mxCell>
        <mxCell id="GHYGCPifQh15sZ_tnKLO-85" value="" style="edgeStyle=orthogonalEdgeStyle;rounded=0;orthogonalLoop=1;jettySize=auto;html=1;" parent="1" target="GHYGCPifQh15sZ_tnKLO-84" edge="1">
          <mxGeometry relative="1" as="geometry">
            <mxPoint x="270.0000000000009" y="1740" as="sourcePoint" />
          </mxGeometry>
        </mxCell>
        <mxCell id="GHYGCPifQh15sZ_tnKLO-76" value="Sewing" style="whiteSpace=wrap;html=1;fillColor=#60a917;strokeColor=#2D7600;rounded=0;fontColor=#ffffff;" parent="1" vertex="1">
          <mxGeometry x="170" y="1510" width="120" height="60" as="geometry" />
        </mxCell>
        <mxCell id="GHYGCPifQh15sZ_tnKLO-86" value="" style="edgeStyle=orthogonalEdgeStyle;rounded=0;orthogonalLoop=1;jettySize=auto;html=1;" parent="1" source="GHYGCPifQh15sZ_tnKLO-78" target="GHYGCPifQh15sZ_tnKLO-84" edge="1">
          <mxGeometry relative="1" as="geometry" />
        </mxCell>
        <mxCell id="GHYGCPifQh15sZ_tnKLO-78" value="Assembling" style="whiteSpace=wrap;html=1;rounded=0;fillColor=#60a917;strokeColor=#2D7600;fontColor=#ffffff;" parent="1" vertex="1">
          <mxGeometry x="375" y="1680" width="120" height="60" as="geometry" />
        </mxCell>
        <mxCell id="GHYGCPifQh15sZ_tnKLO-88" value="" style="edgeStyle=orthogonalEdgeStyle;rounded=0;orthogonalLoop=1;jettySize=auto;html=1;" parent="1" source="GHYGCPifQh15sZ_tnKLO-80" target="GHYGCPifQh15sZ_tnKLO-87" edge="1">
          <mxGeometry relative="1" as="geometry" />
        </mxCell>
        <mxCell id="GHYGCPifQh15sZ_tnKLO-80" value="Assembling" style="whiteSpace=wrap;html=1;fillColor=#60a917;strokeColor=#2D7600;fontColor=#ffffff;rounded=0;" parent="1" vertex="1">
          <mxGeometry x="530" y="1810" width="120" height="60" as="geometry" />
        </mxCell>
        <mxCell id="GHYGCPifQh15sZ_tnKLO-89" style="edgeStyle=orthogonalEdgeStyle;rounded=0;orthogonalLoop=1;jettySize=auto;html=1;" parent="1" source="GHYGCPifQh15sZ_tnKLO-82" target="GHYGCPifQh15sZ_tnKLO-87" edge="1">
          <mxGeometry relative="1" as="geometry" />
        </mxCell>
        <mxCell id="GHYGCPifQh15sZ_tnKLO-82" value="Wielding" style="whiteSpace=wrap;html=1;fillColor=#60a917;strokeColor=#2D7600;fontColor=#ffffff;rounded=0;" parent="1" vertex="1">
          <mxGeometry x="730" y="1810" width="120" height="60" as="geometry" />
        </mxCell>
        <mxCell id="GHYGCPifQh15sZ_tnKLO-91" value="" style="edgeStyle=orthogonalEdgeStyle;rounded=0;orthogonalLoop=1;jettySize=auto;html=1;" parent="1" source="GHYGCPifQh15sZ_tnKLO-84" target="GHYGCPifQh15sZ_tnKLO-90" edge="1">
          <mxGeometry relative="1" as="geometry" />
        </mxCell>
        <mxCell id="GHYGCPifQh15sZ_tnKLO-84" value="Order Ready" style="whiteSpace=wrap;html=1;fillColor=#60a917;strokeColor=#2D7600;fontColor=#ffffff;rounded=0;" parent="1" vertex="1">
          <mxGeometry x="295" y="1790" width="120" height="60" as="geometry" />
        </mxCell>
        <mxCell id="GHYGCPifQh15sZ_tnKLO-93" style="edgeStyle=orthogonalEdgeStyle;rounded=0;orthogonalLoop=1;jettySize=auto;html=1;" parent="1" source="GHYGCPifQh15sZ_tnKLO-87" target="GHYGCPifQh15sZ_tnKLO-92" edge="1">
          <mxGeometry relative="1" as="geometry" />
        </mxCell>
        <mxCell id="GHYGCPifQh15sZ_tnKLO-87" value="Order Ready" style="whiteSpace=wrap;html=1;fillColor=#60a917;strokeColor=#2D7600;fontColor=#ffffff;rounded=0;" parent="1" vertex="1">
          <mxGeometry x="630" y="1930" width="120" height="60" as="geometry" />
        </mxCell>
        <mxCell id="GHYGCPifQh15sZ_tnKLO-95" value="" style="edgeStyle=orthogonalEdgeStyle;rounded=0;orthogonalLoop=1;jettySize=auto;html=1;" parent="1" source="GHYGCPifQh15sZ_tnKLO-90" target="GHYGCPifQh15sZ_tnKLO-94" edge="1">
          <mxGeometry relative="1" as="geometry" />
        </mxCell>
        <mxCell id="GHYGCPifQh15sZ_tnKLO-90" value="Taking Serial # Pictures" style="whiteSpace=wrap;html=1;fillColor=#60a917;strokeColor=#2D7600;fontColor=#ffffff;rounded=0;" parent="1" vertex="1">
          <mxGeometry x="295" y="1900" width="120" height="60" as="geometry" />
        </mxCell>
        <mxCell id="GHYGCPifQh15sZ_tnKLO-97" style="edgeStyle=orthogonalEdgeStyle;rounded=0;orthogonalLoop=1;jettySize=auto;html=1;" parent="1" source="GHYGCPifQh15sZ_tnKLO-92" target="GHYGCPifQh15sZ_tnKLO-96" edge="1">
          <mxGeometry relative="1" as="geometry" />
        </mxCell>
        <mxCell id="GHYGCPifQh15sZ_tnKLO-92" value="Taking Serial # Pictures" style="whiteSpace=wrap;html=1;fillColor=#60a917;strokeColor=#2D7600;fontColor=#ffffff;rounded=0;" parent="1" vertex="1">
          <mxGeometry x="630" y="2040" width="120" height="60" as="geometry" />
        </mxCell>
        <mxCell id="gww7dCVyIf61FeBQB5-1-8" value="" style="edgeStyle=orthogonalEdgeStyle;rounded=0;orthogonalLoop=1;jettySize=auto;html=1;" parent="1" source="GHYGCPifQh15sZ_tnKLO-94" target="gww7dCVyIf61FeBQB5-1-7" edge="1">
          <mxGeometry relative="1" as="geometry" />
        </mxCell>
        <mxCell id="GHYGCPifQh15sZ_tnKLO-94" value="Archiving Serial # Pictures on local-drive" style="whiteSpace=wrap;html=1;fillColor=#60a917;strokeColor=#2D7600;fontColor=#ffffff;rounded=0;" parent="1" vertex="1">
          <mxGeometry x="295" y="2000" width="120" height="60" as="geometry" />
        </mxCell>
        <mxCell id="gww7dCVyIf61FeBQB5-1-10" value="" style="edgeStyle=orthogonalEdgeStyle;rounded=0;orthogonalLoop=1;jettySize=auto;html=1;" parent="1" source="GHYGCPifQh15sZ_tnKLO-96" target="gww7dCVyIf61FeBQB5-1-9" edge="1">
          <mxGeometry relative="1" as="geometry" />
        </mxCell>
        <mxCell id="GHYGCPifQh15sZ_tnKLO-96" value="Archiving Serial # Pictures on local-drive" style="whiteSpace=wrap;html=1;fillColor=#60a917;strokeColor=#2D7600;fontColor=#ffffff;rounded=0;" parent="1" vertex="1">
          <mxGeometry x="630" y="2140" width="120" height="60" as="geometry" />
        </mxCell>
        <mxCell id="GHYGCPifQh15sZ_tnKLO-99" value="Marketing:&lt;div&gt;&lt;span style=&quot;background-color: transparent; color: light-dark(rgb(0, 0, 0), rgb(237, 237, 237));&quot;&gt;Sydney&lt;/span&gt;&lt;div&gt;&lt;div&gt;Val&lt;/div&gt;&lt;/div&gt;&lt;/div&gt;" style="text;html=1;align=center;verticalAlign=middle;whiteSpace=wrap;rounded=0;fillColor=#fa6800;fontColor=#000000;strokeColor=#C73500;" parent="1" vertex="1">
          <mxGeometry x="1210" y="-310" width="125" height="80" as="geometry" />
        </mxCell>
        <mxCell id="Xjn30Ic-mJEV0kmaZJ53-1" value="Sales:&lt;div&gt;Jennifer&lt;/div&gt;&lt;div&gt;Larry&lt;/div&gt;&lt;div&gt;Tom&lt;/div&gt;&lt;div&gt;Evan&lt;/div&gt;&lt;div&gt;Anastasiia&lt;/div&gt;&lt;div&gt;WIllow&lt;/div&gt;&lt;div&gt;Brody&lt;/div&gt;&lt;div&gt;James&lt;/div&gt;" style="rounded=0;whiteSpace=wrap;html=1;fillColor=#cce5ff;strokeColor=#36393d;" parent="1" vertex="1">
          <mxGeometry x="1212.5" y="-10" width="120" height="150" as="geometry" />
        </mxCell>
        <mxCell id="Xjn30Ic-mJEV0kmaZJ53-2" value="Operation:&lt;div&gt;Elaine&lt;/div&gt;&lt;div&gt;Carol&lt;/div&gt;&lt;div&gt;Troianne&lt;/div&gt;" style="rounded=0;whiteSpace=wrap;html=1;fillColor=#60a917;strokeColor=#2D7600;fontColor=#ffffff;" parent="1" vertex="1">
          <mxGeometry x="1215" y="330" width="120" height="60" as="geometry" />
        </mxCell>
        <mxCell id="Xjn30Ic-mJEV0kmaZJ53-3" value="Engineering:&lt;div&gt;Sydni&lt;/div&gt;&lt;div&gt;Iain&lt;/div&gt;&lt;div&gt;Colin&lt;/div&gt;&lt;div&gt;Angeline&lt;/div&gt;&lt;div&gt;Trevor&lt;/div&gt;&lt;div&gt;&lt;br&gt;&lt;/div&gt;" style="rounded=0;whiteSpace=wrap;html=1;fillColor=#f8cecc;strokeColor=#b85450;gradientColor=#ea6b66;" parent="1" vertex="1">
          <mxGeometry x="1215" y="-180" width="120" height="100" as="geometry" />
        </mxCell>
        <mxCell id="gww7dCVyIf61FeBQB5-1-2" value="Service/Repair:&lt;div&gt;Mike&lt;br&gt;Adam&lt;/div&gt;&lt;div&gt;Larry&lt;/div&gt;" style="rounded=0;whiteSpace=wrap;html=1;fillColor=#0050ef;strokeColor=#001DBC;fontColor=#ffffff;" parent="1" vertex="1">
          <mxGeometry x="1215" y="200" width="120" height="60" as="geometry" />
        </mxCell>
        <mxCell id="gww7dCVyIf61FeBQB5-1-3" value="Management:&lt;div&gt;Corey&lt;/div&gt;&lt;div&gt;Gabrielle&lt;/div&gt;&lt;div&gt;Dirk&lt;/div&gt;" style="rounded=0;whiteSpace=wrap;html=1;fillColor=#e51400;fontColor=#ffffff;strokeColor=#B20000;" parent="1" vertex="1">
          <mxGeometry x="1215" y="-420" width="120" height="60" as="geometry" />
        </mxCell>
        <mxCell id="gww7dCVyIf61FeBQB5-1-5" value="Fabrication" style="rounded=0;whiteSpace=wrap;html=1;fillColor=#a20025;fontColor=#ffffff;strokeColor=#6F0000;" parent="1" vertex="1">
          <mxGeometry x="1212.5" y="460" width="120" height="60" as="geometry" />
        </mxCell>
        <mxCell id="gww7dCVyIf61FeBQB5-1-6" value="Sewing" style="rounded=0;whiteSpace=wrap;html=1;fillColor=#b0e3e6;strokeColor=#0e8088;" parent="1" vertex="1">
          <mxGeometry x="1215" y="580" width="120" height="60" as="geometry" />
        </mxCell>
        <mxCell id="gww7dCVyIf61FeBQB5-1-7" value="Shipping" style="whiteSpace=wrap;html=1;fillColor=#60a917;strokeColor=#2D7600;fontColor=#ffffff;rounded=0;" parent="1" vertex="1">
          <mxGeometry x="295" y="2140" width="120" height="60" as="geometry" />
        </mxCell>
        <mxCell id="gww7dCVyIf61FeBQB5-1-9" value="Shipping" style="whiteSpace=wrap;html=1;fillColor=#60a917;strokeColor=#2D7600;fontColor=#ffffff;rounded=0;" parent="1" vertex="1">
          <mxGeometry x="630" y="2280" width="120" height="60" as="geometry" />
        </mxCell>
        <mxCell id="r7g_J46dXL48xL23C749-2" value="Customer" style="ellipse;whiteSpace=wrap;html=1;fillColor=#ffe6cc;strokeColor=#d79b00;" vertex="1" parent="1">
          <mxGeometry x="120" y="-400" width="120" height="80" as="geometry" />
        </mxCell>
        <mxCell id="r7g_J46dXL48xL23C749-35" style="edgeStyle=orthogonalEdgeStyle;rounded=0;orthogonalLoop=1;jettySize=auto;html=1;exitX=0.5;exitY=0;exitDx=0;exitDy=0;entryX=0;entryY=0.5;entryDx=0;entryDy=0;" edge="1" parent="1" source="r7g_J46dXL48xL23C749-3" target="r7g_J46dXL48xL23C749-2">
          <mxGeometry relative="1" as="geometry" />
        </mxCell>
        <mxCell id="r7g_J46dXL48xL23C749-3" value="MailChimp" style="rounded=0;whiteSpace=wrap;html=1;fillColor=#fa6800;fontColor=#000000;strokeColor=#C73500;" vertex="1" parent="1">
          <mxGeometry x="-530" y="-240" width="130" height="80" as="geometry" />
        </mxCell>
        <mxCell id="r7g_J46dXL48xL23C749-20" style="edgeStyle=orthogonalEdgeStyle;rounded=0;orthogonalLoop=1;jettySize=auto;html=1;exitX=0.5;exitY=1;exitDx=0;exitDy=0;" edge="1" parent="1" source="r7g_J46dXL48xL23C749-4" target="r7g_J46dXL48xL23C749-17">
          <mxGeometry relative="1" as="geometry" />
        </mxCell>
        <mxCell id="r7g_J46dXL48xL23C749-4" value="Event" style="rounded=0;whiteSpace=wrap;html=1;fillColor=#fa6800;fontColor=#000000;strokeColor=#C73500;" vertex="1" parent="1">
          <mxGeometry x="570" y="-230" width="120" height="60" as="geometry" />
        </mxCell>
        <mxCell id="r7g_J46dXL48xL23C749-6" value="Reach out to FCI" style="text;html=1;align=center;verticalAlign=middle;resizable=0;points=[];autosize=1;strokeColor=#b85450;fillColor=#f8cecc;" vertex="1" parent="1">
          <mxGeometry x="125" y="-290" width="110" height="30" as="geometry" />
        </mxCell>
        <mxCell id="r7g_J46dXL48xL23C749-8" value="" style="edgeStyle=orthogonalEdgeStyle;rounded=0;orthogonalLoop=1;jettySize=auto;html=1;shape=link;" edge="1" parent="1" target="r7g_J46dXL48xL23C749-9">
          <mxGeometry relative="1" as="geometry">
            <mxPoint x="690" y="-200" as="sourcePoint" />
          </mxGeometry>
        </mxCell>
        <mxCell id="r7g_J46dXL48xL23C749-21" style="edgeStyle=orthogonalEdgeStyle;rounded=0;orthogonalLoop=1;jettySize=auto;html=1;exitX=0.5;exitY=1;exitDx=0;exitDy=0;entryX=0.75;entryY=0;entryDx=0;entryDy=0;" edge="1" parent="1" source="r7g_J46dXL48xL23C749-9" target="r7g_J46dXL48xL23C749-17">
          <mxGeometry relative="1" as="geometry" />
        </mxCell>
        <mxCell id="r7g_J46dXL48xL23C749-9" value="Phone Call" style="rounded=0;whiteSpace=wrap;html=1;fillColor=#fa6800;fontColor=#000000;strokeColor=#C73500;" vertex="1" parent="1">
          <mxGeometry x="720" y="-230" width="120" height="60" as="geometry" />
        </mxCell>
        <mxCell id="r7g_J46dXL48xL23C749-10" value="" style="edgeStyle=orthogonalEdgeStyle;rounded=0;orthogonalLoop=1;jettySize=auto;html=1;shape=link;" edge="1" parent="1" source="r7g_J46dXL48xL23C749-11">
          <mxGeometry relative="1" as="geometry">
            <mxPoint x="-180" y="-200" as="targetPoint" />
          </mxGeometry>
        </mxCell>
        <mxCell id="r7g_J46dXL48xL23C749-12" style="edgeStyle=orthogonalEdgeStyle;rounded=0;orthogonalLoop=1;jettySize=auto;html=1;exitX=0.5;exitY=1;exitDx=0;exitDy=0;entryX=0;entryY=0;entryDx=0;entryDy=0;" edge="1" parent="1" source="r7g_J46dXL48xL23C749-11" target="GHYGCPifQh15sZ_tnKLO-62">
          <mxGeometry relative="1" as="geometry" />
        </mxCell>
        <mxCell id="r7g_J46dXL48xL23C749-11" value="FCI Website" style="rounded=0;whiteSpace=wrap;html=1;fillColor=#fa6800;fontColor=#000000;strokeColor=#C73500;" vertex="1" parent="1">
          <mxGeometry x="-330" y="-230" width="120" height="60" as="geometry" />
        </mxCell>
        <mxCell id="r7g_J46dXL48xL23C749-24" style="edgeStyle=orthogonalEdgeStyle;rounded=0;orthogonalLoop=1;jettySize=auto;html=1;" edge="1" parent="1" source="r7g_J46dXL48xL23C749-17" target="r7g_J46dXL48xL23C749-23">
          <mxGeometry relative="1" as="geometry" />
        </mxCell>
        <mxCell id="r7g_J46dXL48xL23C749-17" value="FCI Sales Team" style="rounded=0;whiteSpace=wrap;html=1;fillColor=#dae8fc;strokeColor=#6c8ebf;" vertex="1" parent="1">
          <mxGeometry x="440" y="-60" width="120" height="60" as="geometry" />
        </mxCell>
        <mxCell id="r7g_J46dXL48xL23C749-30" style="edgeStyle=orthogonalEdgeStyle;rounded=0;orthogonalLoop=1;jettySize=auto;html=1;shape=link;" edge="1" parent="1" source="r7g_J46dXL48xL23C749-23" target="r7g_J46dXL48xL23C749-29">
          <mxGeometry relative="1" as="geometry" />
        </mxCell>
        <mxCell id="r7g_J46dXL48xL23C749-48" style="edgeStyle=orthogonalEdgeStyle;rounded=0;orthogonalLoop=1;jettySize=auto;html=1;exitX=0.25;exitY=1;exitDx=0;exitDy=0;entryX=1;entryY=0.5;entryDx=0;entryDy=0;shape=link;" edge="1" parent="1" source="r7g_J46dXL48xL23C749-23" target="r7g_J46dXL48xL23C749-42">
          <mxGeometry relative="1" as="geometry" />
        </mxCell>
        <mxCell id="r7g_J46dXL48xL23C749-23" value="CRM" style="rounded=0;whiteSpace=wrap;html=1;fillColor=#dae8fc;strokeColor=#6c8ebf;" vertex="1" parent="1">
          <mxGeometry x="330" y="160" width="120" height="60" as="geometry" />
        </mxCell>
        <mxCell id="r7g_J46dXL48xL23C749-29" value="Configurator" style="rounded=0;whiteSpace=wrap;html=1;fillColor=#dae8fc;strokeColor=#6c8ebf;" vertex="1" parent="1">
          <mxGeometry x="80" y="160" width="120" height="60" as="geometry" />
        </mxCell>
        <mxCell id="r7g_J46dXL48xL23C749-31" value="Customers&#39; info" style="text;html=1;align=center;verticalAlign=middle;resizable=0;points=[];autosize=1;strokeColor=#b85450;fillColor=#f8cecc;" vertex="1" parent="1">
          <mxGeometry x="-120" y="-110" width="110" height="30" as="geometry" />
        </mxCell>
        <mxCell id="r7g_J46dXL48xL23C749-32" value="Customers&#39; info" style="text;html=1;align=center;verticalAlign=middle;resizable=0;points=[];autosize=1;strokeColor=#b85450;fillColor=#f8cecc;" vertex="1" parent="1">
          <mxGeometry x="430" y="-110" width="110" height="30" as="geometry" />
        </mxCell>
        <mxCell id="r7g_J46dXL48xL23C749-33" value="Create Accounts&lt;div&gt;Create Quotes&lt;/div&gt;" style="text;html=1;align=center;verticalAlign=middle;resizable=0;points=[];autosize=1;strokeColor=#b85450;fillColor=#f8cecc;" vertex="1" parent="1">
          <mxGeometry x="440" y="60" width="110" height="40" as="geometry" />
        </mxCell>
        <mxCell id="r7g_J46dXL48xL23C749-34" value="Create Contacts" style="text;html=1;align=center;verticalAlign=middle;resizable=0;points=[];autosize=1;strokeColor=#b85450;fillColor=#f8cecc;" vertex="1" parent="1">
          <mxGeometry x="-520" y="-10" width="110" height="30" as="geometry" />
        </mxCell>
        <mxCell id="r7g_J46dXL48xL23C749-36" value="Send Promotional Emails" style="text;html=1;align=center;verticalAlign=middle;resizable=0;points=[];autosize=1;strokeColor=#b85450;fillColor=#f8cecc;" vertex="1" parent="1">
          <mxGeometry x="-530" y="-375" width="160" height="30" as="geometry" />
        </mxCell>
        <mxCell id="r7g_J46dXL48xL23C749-37" value="Get Pricing" style="text;html=1;align=center;verticalAlign=middle;resizable=0;points=[];autosize=1;strokeColor=#b85450;fillColor=#f8cecc;" vertex="1" parent="1">
          <mxGeometry x="220" y="140" width="80" height="30" as="geometry" />
        </mxCell>
        <mxCell id="r7g_J46dXL48xL23C749-38" value="Order Slip" style="whiteSpace=wrap;html=1;rounded=0;fillColor=#60a917;strokeColor=#2D7600;fontColor=#ffffff;" vertex="1" parent="1">
          <mxGeometry x="330" y="590" width="120" height="60" as="geometry" />
        </mxCell>
        <mxCell id="r7g_J46dXL48xL23C749-41" value="Create Order" style="text;html=1;align=center;verticalAlign=middle;resizable=0;points=[];autosize=1;strokeColor=none;fillColor=none;" vertex="1" parent="1">
          <mxGeometry x="500" y="250" width="90" height="30" as="geometry" />
        </mxCell>
        <mxCell id="r7g_J46dXL48xL23C749-53" style="edgeStyle=orthogonalEdgeStyle;rounded=0;orthogonalLoop=1;jettySize=auto;html=1;entryX=1;entryY=0.5;entryDx=0;entryDy=0;shape=link;" edge="1" parent="1" source="r7g_J46dXL48xL23C749-54" target="r7g_J46dXL48xL23C749-52">
          <mxGeometry relative="1" as="geometry" />
        </mxCell>
        <mxCell id="r7g_J46dXL48xL23C749-42" value="CAT3" style="rounded=0;whiteSpace=wrap;html=1;fillColor=#cce5ff;strokeColor=#36393d;" vertex="1" parent="1">
          <mxGeometry x="80" y="308" width="120" height="60" as="geometry" />
        </mxCell>
        <mxCell id="r7g_J46dXL48xL23C749-47" value="Check Feasibility" style="text;html=1;align=center;verticalAlign=middle;resizable=0;points=[];autosize=1;strokeColor=#b85450;fillColor=#f8cecc;" vertex="1" parent="1">
          <mxGeometry x="280" y="278" width="110" height="30" as="geometry" />
        </mxCell>
        <mxCell id="r7g_J46dXL48xL23C749-52" value="FCI Engineering Team" style="rounded=0;whiteSpace=wrap;html=1;fillColor=#dae8fc;strokeColor=#6c8ebf;" vertex="1" parent="1">
          <mxGeometry x="-280" y="302" width="140" height="72" as="geometry" />
        </mxCell>
        <mxCell id="r7g_J46dXL48xL23C749-55" value="" style="edgeStyle=orthogonalEdgeStyle;rounded=0;orthogonalLoop=1;jettySize=auto;html=1;entryX=1;entryY=0.5;entryDx=0;entryDy=0;shape=link;" edge="1" parent="1" source="r7g_J46dXL48xL23C749-42" target="r7g_J46dXL48xL23C749-54">
          <mxGeometry relative="1" as="geometry">
            <mxPoint x="80" y="338" as="sourcePoint" />
            <mxPoint x="-140" y="338" as="targetPoint" />
          </mxGeometry>
        </mxCell>
        <mxCell id="r7g_J46dXL48xL23C749-54" value="Check Feasibility" style="text;html=1;align=center;verticalAlign=middle;resizable=0;points=[];autosize=1;strokeColor=#b85450;fillColor=#f8cecc;" vertex="1" parent="1">
          <mxGeometry x="-80" y="323" width="110" height="30" as="geometry" />
        </mxCell>
      </root>
    </mxGraphModel>
  </diagram>
</mxfile>
